<?xml version="1.0" encoding="utf-8"?>
<!-- Generator: Adobe Illustrator 22.0.0, SVG Export Plug-In . SVG Version: 6.00 Build 0)  -->
<svg version="1.1" id="Layer_1" xmlns="http://www.w3.org/2000/svg" xmlns:xlink="http://www.w3.org/1999/xlink" x="0px" y="0px"
	 viewBox="0 0 114.5 114.5" style="enable-background:new 0 0 114.5 114.5;" xml:space="preserve">
<style type="text/css">
	.st0{fill:#333333;}
	.st1{fill:#FFFFFF;}
</style>
<path class="st0" d="M103.9,114.5H10.6c-5.8,0-10.6-4.7-10.6-10.6V10.6C0,4.7,4.7,0,10.6,0h93.3c5.8,0,10.6,4.7,10.6,10.6v93.3
	C114.5,109.8,109.8,114.5,103.9,114.5z"/>
<g>
	<path class="st1" d="M30.1,96.9V17.4h43c12.2,0,22.3,9.3,22.9,21.1c0.3,6.2-1.9,12-6.1,16.4c-4.2,4.6-9.9,7.1-16.1,7.1h-9.6V49.3
		h9.3c5.2,0,9.6-4,10-9c0.2-2.7-0.7-5.2-2.5-7.2c-1.8-1.9-4.4-3-7-3H47.4c-2.5,0-4.5,2-4.5,4.5v45.1c0,2.5,2,4.5,4.5,4.5h18.8
		c2.5,0,4.5-2,4.5-4.5v-3.5h12.7v20.6C83.4,96.9,30.1,96.9,30.1,96.9z"/>
</g>
</svg>
