<?xml version="1.0" encoding="utf-8"?>
<!-- Generator: Adobe Illustrator 22.0.0, SVG Export Plug-In . SVG Version: 6.00 Build 0)  -->
<svg version="1.1" id="Layer_1" xmlns="http://www.w3.org/2000/svg" xmlns:xlink="http://www.w3.org/1999/xlink" x="0px" y="0px"
	 viewBox="0 0 371.1 82.4" style="enable-background:new 0 0 371.1 82.4;" xml:space="preserve">
<style type="text/css">
	.st0{fill:#333333;}
	.st1{fill:#FFFFFF;}
</style>
<path class="st0" d="M74.6,82.8h-67c-4.2,0-7.6-3.4-7.6-7.6v-67c0-4.2,3.4-7.6,7.6-7.6h67c4.2,0,7.6,3.4,7.6,7.6v67
	C82.2,79.4,78.9,82.8,74.6,82.8z"/>
<g>
	<path class="st1" d="M21.7,70.1V13.1h30.9c8.8,0,16,6.7,16.4,15.1c0.2,4.4-1.4,8.6-4.4,11.8c-3,3.3-7.1,5.1-11.6,5.1h-6.9V36h6.7
		c3.7,0,6.9-2.9,7.2-6.5c0.1-1.9-0.5-3.7-1.8-5.2c-1.3-1.4-3.2-2.2-5-2.2H34.1c-1.8,0-3.2,1.4-3.2,3.2v32.4c0,1.8,1.4,3.2,3.2,3.2
		h13.5c1.8,0,3.2-1.4,3.2-3.2v-2.5h9.1v14.8C59.9,70.1,21.7,70.1,21.7,70.1z"/>
</g>
<path class="st0" d="M106.9,74.7c-1.1,0-2.1-0.4-2.9-1.2c-0.8-0.7-1.2-1.8-1.2-2.9V40.8c-0.1-3.2,0.7-6.3,2.3-9.1
	c3.1-5.5,9-8.8,15.3-8.8c3.2,0,6.3,0.7,9,2.4c2.7,1.5,4.9,3.7,6.4,6.5c1.6,2.8,2.4,5.9,2.3,9c0.1,3.1-0.7,6.3-2.2,9
	c-1.4,2.7-3.4,4.8-5.9,6.5c-2.5,1.6-5.4,2.4-8.4,2.3c-3.9,0.1-7.8-1.4-10.8-4.1v16c0.1,2.2-1.6,3.9-3.7,4.1
	C107.1,74.7,107,74.7,106.9,74.7L106.9,74.7z M120.5,30.3c-1.8,0-3.5,0.5-5,1.4c-1.5,0.9-2.7,2.2-3.5,3.7c-0.9,1.6-1.3,3.5-1.3,5.4
	s0.4,3.7,1.3,5.4c2.6,4.8,8.6,6.5,13.3,3.9c0.1-0.1,0.2-0.1,0.3-0.1c1.5-0.9,2.7-2.2,3.5-3.7c0.9-1.6,1.4-3.5,1.3-5.4
	c0-1.9-0.4-3.7-1.3-5.4c-0.8-1.6-2-2.9-3.5-3.7S122.3,30.3,120.5,30.3L120.5,30.3z"/>
<path class="st0" d="M157.7,58.6c-3,0-5.9-0.7-8.4-2.3c-2.5-1.6-4.6-3.8-5.9-6.5c-1.4-2.8-2.2-5.9-2.2-9c-0.1-3.2,0.7-6.3,2.3-9.1
	c1.5-2.7,3.7-4.9,6.4-6.5c2.7-1.6,5.8-2.4,9-2.4c6.3-0.1,12.2,3.3,15.4,8.8c1.6,2.8,2.4,5.9,2.4,9.1v13.6c0.1,2.2-1.8,4.1-4,4.1
	s-4.1-1.8-4.1-4l0,0C165.5,57.2,161.7,58.7,157.7,58.6L157.7,58.6z M159,30.3c-1.8,0-3.5,0.5-5,1.4c-1.5,0.9-2.7,2.2-3.5,3.7
	c-0.9,1.6-1.4,3.5-1.3,5.4c0,1.8,0.4,3.7,1.3,5.4c0.8,1.6,2,2.8,3.5,3.7c4.6,2.8,10.5,1.3,13.3-3.3c0.1-0.1,0.2-0.3,0.3-0.5
	c0.9-1.6,1.3-3.5,1.3-5.4c0-1.9-0.4-3.7-1.3-5.4C165.8,32.2,162.6,30.3,159,30.3L159,30.3z"/>
<path class="st0" d="M198.9,74.5c-2.9,0-5.8-0.6-8.6-1.8c-2.6-1.2-4.9-3-6.7-5.2c-0.5-0.7-0.9-1.4-0.9-2.3c0-1.2,0.7-2.3,1.7-3
	c0.7-0.5,1.4-0.7,2.2-0.7c1.3,0,2.5,0.6,3.3,1.6c1,1.3,2.3,2.3,3.7,2.9c1.6,0.7,3.5,1.1,5.2,1c1.7,0,3.4-0.4,4.9-1.3
	c1.5-0.9,2.7-2.2,3.5-3.8c0.6-1.2,0.5-4.1,0.4-6.3c0-0.7-0.1-1.5-0.1-2.1c-1,1.2-2.2,2.2-3.5,3c-2.2,1.4-4.8,2-7.5,2
	c-3,0.1-6-0.7-8.6-2.3c-2.5-1.5-4.6-3.7-5.9-6.4c-1.4-2.9-2.1-6-2-9.1c-0.1-3.2,0.7-6.4,2.2-9.2c1.5-2.7,3.7-4.9,6.3-6.4
	c2.8-1.6,6-2.3,9.2-2.3c3.2-0.1,6.3,0.7,9.1,2.3c2.7,1.5,4.8,3.7,6.3,6.3c1.6,2.9,2.3,6,2.3,9.2v13.1c0,0.5,0,1,0,1.5
	c0.1,3.4,0.1,7.6-1.2,10.1c-1.5,2.7-3.7,5-6.3,6.6C205.3,73.8,202.1,74.6,198.9,74.5z M198,30.3c-1.8,0-3.5,0.4-5.1,1.4
	c-1.5,0.9-2.7,2.2-3.5,3.7c-0.9,1.7-1.3,3.5-1.3,5.4c-0.1,1.9,0.4,3.7,1.3,5.4c0.8,1.5,2,2.8,3.5,3.7c3.1,1.8,7,1.8,10.1,0
	c1.5-0.9,2.7-2.2,3.5-3.7c0.9-1.7,1.3-3.5,1.3-5.4s-0.4-3.7-1.3-5.4c-0.7-1.6-2-2.8-3.5-3.7C201.5,30.8,199.7,30.3,198,30.3
	L198,30.3z"/>
<path class="st0" d="M237.4,57.3c-3.3,0.1-6.5-0.7-9.3-2.2c-2.7-1.4-4.9-3.6-6.5-6.2c-1.6-2.7-2.4-5.8-2.4-9c-0.1-3.1,0.7-6.3,2.2-9
	c1.4-2.6,3.6-4.8,6.1-6.3c2.7-1.5,5.8-2.2,8.9-2.2c3-0.1,5.9,0.7,8.5,2.1c2.4,1.4,4.3,3.5,5.5,6.1c1.3,2.7,2,5.7,1.9,8.8
	c0,1-0.4,1.8-1.1,2.5c-0.7,0.7-1.7,1.1-2.7,1h-21.8c0.5,2,1.6,3.8,3.3,5c3.1,2.3,7,3,10.6,1.7c1.1-0.3,2-0.8,3-1.4
	c0.7-0.6,1.6-0.9,2.6-0.9c2-0.1,3.8,1.5,3.9,3.6c0,1-0.5,1.9-1.4,2.5c-1.6,1.2-3.5,2.1-5.4,2.8C241.5,57,239.4,57.3,237.4,57.3z
	 M244.8,36.4c-0.3-1.8-1.2-3.5-2.6-4.7c-1.6-1.4-3.7-2.2-5.8-2.1c-4.4-0.3-8.4,2.6-9.5,6.9L244.8,36.4L244.8,36.4z"/>
<path class="st0" d="M267.2,57.1c-1.9,0-3.7-0.5-5.2-1.5c-1.6-1.1-2.9-2.6-3.6-4.3c-0.8-1.9-1.3-4-1.2-6.1V11c0-2.2,1.8-3.9,3.9-3.9
	c2.2,0,3.9,1.7,3.9,3.9l0,0v34.2c-0.1,1.1,0.2,2.2,0.7,3.1c0.5,0.9,1,1,1.4,1h1.5c1,0,2,0.4,2.7,1.2c0.7,0.8,1,1.7,1,2.8
	c0,1.2-0.5,2.2-1.6,2.9c-1,0.7-2.3,1.1-3.5,1L267.2,57.1z"/>
<path class="st0" d="M291.3,57.3c-3.2,0.1-6.3-0.7-9.1-2.2c-2.7-1.4-4.8-3.6-6.3-6.3c-3-5.6-3-12.4,0-17.9c1.5-2.6,3.7-4.8,6.3-6.3
	c2.8-1.5,5.9-2.2,9.1-2.2c3.2-0.1,6.3,0.7,9,2.2c2.7,1.4,4.8,3.6,6.3,6.2c3.1,5.6,3.1,12.4,0,18c-1.5,2.6-3.7,4.8-6.3,6.2
	C297.5,56.6,294.4,57.4,291.3,57.3z M291.3,29.7c-1.8,0-3.5,0.4-5,1.4c-1.5,0.9-2.7,2.1-3.5,3.6c-0.9,1.6-1.3,3.5-1.3,5.3
	c-0.1,1.8,0.4,3.7,1.3,5.3c0.8,1.4,2,2.7,3.5,3.6c3.1,1.7,6.9,1.7,10.1,0c1.5-0.9,2.7-2,3.5-3.6c0.9-1.6,1.3-3.5,1.3-5.3
	s-0.4-3.7-1.3-5.3c-0.8-1.5-2-2.7-3.5-3.6C294.7,30.2,293,29.7,291.3,29.7z"/>
<path class="st0" d="M329.9,57.3c-3.2,0.1-6.3-0.7-9.1-2.2c-2.7-1.4-4.8-3.6-6.3-6.3c-3-5.6-3-12.4,0-17.9c1.5-2.6,3.7-4.8,6.3-6.3
	c2.8-1.5,5.9-2.2,9.1-2.2c3.2-0.1,6.3,0.7,9,2.2c2.7,1.4,4.8,3.6,6.3,6.2c3,5.6,3,12.4,0,18c-1.5,2.6-3.7,4.8-6.3,6.2
	C336.1,56.6,333,57.4,329.9,57.3z M329.9,29.7c-1.8,0-3.5,0.4-5,1.4c-1.5,0.9-2.7,2.1-3.5,3.6c-0.9,1.6-1.3,3.5-1.3,5.3
	c-0.1,1.8,0.4,3.7,1.3,5.3c0.8,1.4,2,2.7,3.5,3.6c3.1,1.7,6.9,1.7,10.1,0c1.5-0.9,2.7-2,3.5-3.6c0.9-1.6,1.3-3.5,1.2-5.3
	c0-1.8-0.4-3.7-1.2-5.3c-0.8-1.5-2-2.7-3.5-3.6S331.6,29.7,329.9,29.7z"/>
<path class="st0" d="M365.6,57.1c-2.1,0-4.1-0.5-5.9-1.6c-1.8-1.2-3.3-2.7-4.1-4.5c-1-1.9-1.6-4.1-1.5-6.3V29.6h-1.8
	c-1,0.1-2-0.3-2.7-1c-0.7-0.7-1.1-1.5-1.1-2.4c-0.1-1,0.3-1.9,1.1-2.6s1.7-1,2.7-1h1.8V11c0-2.2,1.8-3.9,3.9-3.9
	c2.2,0,3.9,1.7,3.9,3.9l0,0v11.6h4.1c1-0.1,2,0.3,2.7,1s1.2,1.6,1.1,2.6c0,1-0.4,1.8-1.1,2.4c-0.7,0.7-1.7,1-2.7,1H362v15.1
	c-0.1,1.2,0.3,2.4,1.2,3.4c0.6,0.8,1.6,1.3,2.5,1.3h2c1,0,1.9,0.4,2.6,1.2c0.7,0.8,1,1.8,1,2.8c0,1.2-0.5,2.1-1.4,2.9
	c-0.9,0.7-2,1.1-3.2,1.1L365.6,57.1z"/>
</svg>
